<?xml version="1.0" encoding="utf-8"?>
<!-- Generator: Adobe Illustrator 25.4.1, SVG Export Plug-In . SVG Version: 6.00 Build 0)  -->
<svg version="1.1" id="Layer_1" xmlns="http://www.w3.org/2000/svg" xmlns:xlink="http://www.w3.org/1999/xlink" x="0px" y="0px"
	 viewBox="0 0 47.2 33.6" style="enable-background:new 0 0 47.2 33.6;" xml:space="preserve">
<style type="text/css">
	.st0{fill:#FFFFFF;}
	.st1{fill:#FCFCFC;}
	.st2{font-family:'ArialNarrow-Bold';}
	.st3{font-size:10px;}
	.st4{fill:#231F20;}
</style>
<g>
	<rect width="47.2" height="33.6"/>
	<path class="st0" d="M39.9,33.6c4.1,0,7.3-3.3,7.3-7.3c0-4.1-3.3-7.3-7.3-7.3c-4.1,0-7.3,3.3-7.3,7.3
		C32.6,30.3,35.8,33.6,39.9,33.6"/>
	<text transform="matrix(1 0 0 1 1.296997e-04 30.1105)" class="st1 st2 st3">SCEGLI</text>
	<path class="st4" d="M39.8,25.3c0.2,0,0.5-0.1,0.7-0.2c0.2-0.1,0.4-0.2,0.5-0.4c0.1-0.2,0.2-0.4,0.2-0.7c0-0.4-0.1-0.7-0.4-0.9
		c-0.3-0.2-0.6-0.3-0.9-0.3c-0.5,0-0.9,0.2-1.1,0.5c-0.2,0.3-0.4,0.7-0.4,1.2h-1.8c0-0.5,0.1-0.9,0.3-1.3c0.2-0.4,0.4-0.8,0.7-1
		c0.3-0.3,0.6-0.5,1-0.7c0.4-0.2,0.8-0.2,1.3-0.2c0.4,0,0.8,0.1,1.1,0.2c0.4,0.1,0.7,0.3,1,0.5c0.3,0.2,0.6,0.5,0.7,0.8
		c0.2,0.3,0.3,0.7,0.3,1.1c0,0.5-0.1,0.9-0.3,1.2c-0.2,0.4-0.6,0.6-1,0.7v0c0.5,0.1,0.9,0.4,1.2,0.8c0.3,0.4,0.4,0.9,0.4,1.4
		c0,0.5-0.1,0.9-0.3,1.3c-0.2,0.4-0.5,0.7-0.8,1c-0.3,0.3-0.7,0.5-1.1,0.6c-0.4,0.1-0.9,0.2-1.3,0.2c-0.5,0-1-0.1-1.5-0.2
		c-0.4-0.2-0.8-0.4-1.1-0.7c-0.3-0.3-0.5-0.7-0.7-1.1c-0.2-0.4-0.2-0.9-0.2-1.5h1.8c0,0.3,0,0.5,0.1,0.7c0.1,0.2,0.2,0.4,0.3,0.6
		c0.1,0.2,0.3,0.3,0.5,0.4c0.2,0.1,0.4,0.1,0.7,0.1c0.4,0,0.8-0.1,1.1-0.4c0.3-0.3,0.4-0.6,0.4-1.1c0-0.4-0.1-0.6-0.2-0.8
		c-0.1-0.2-0.3-0.3-0.5-0.4c-0.2-0.1-0.5-0.1-0.7-0.2c-0.3,0-0.5,0-0.7,0v-1.4C39.3,25.4,39.6,25.4,39.8,25.3"/>
	<path class="st0" d="M39.9,14.7c4.1,0,7.3-3.3,7.3-7.3c0-4-3.3-7.3-7.3-7.3c-4.1,0-7.3,3.3-7.3,7.3C32.6,11.4,35.8,14.7,39.9,14.7"
		/>
	<path class="st4" d="M37,4.7c0.1-0.4,0.3-0.8,0.6-1.1c0.3-0.3,0.6-0.6,1-0.8C39,2.7,39.5,2.6,40,2.6c0.4,0,0.8,0.1,1.2,0.2
		c0.4,0.1,0.7,0.3,1,0.5c0.3,0.2,0.5,0.5,0.7,0.9c0.2,0.3,0.2,0.7,0.2,1.2c0,0.4-0.1,0.8-0.2,1.2c-0.1,0.3-0.3,0.6-0.6,0.9
		C42,7.6,41.8,7.8,41.5,8c-0.3,0.2-0.6,0.4-0.9,0.6C40.3,8.8,40,9,39.7,9.3c-0.3,0.2-0.5,0.5-0.8,0.8h4.2v1.5h-6.5
		c0-0.5,0.1-1,0.2-1.3c0.1-0.4,0.3-0.7,0.6-1c0.3-0.3,0.5-0.6,0.9-0.8c0.3-0.3,0.7-0.5,1.1-0.8c0.2-0.1,0.4-0.3,0.6-0.4
		c0.2-0.1,0.4-0.3,0.6-0.5c0.2-0.2,0.3-0.4,0.5-0.6c0.1-0.2,0.2-0.4,0.2-0.7c0-0.4-0.1-0.8-0.4-1c-0.2-0.2-0.6-0.4-1-0.4
		c-0.3,0-0.5,0.1-0.7,0.2c-0.2,0.1-0.3,0.3-0.4,0.5c-0.1,0.2-0.2,0.4-0.2,0.7c0,0.2-0.1,0.5-0.1,0.7h-1.7C36.8,5.6,36.9,5.2,37,4.7"
		/>
	<text transform="matrix(1 0 0 1 1.9887 11.1127)" class="st1 st2 st3">PESCA</text>
</g>
</svg>
